<?xml version="1.0" encoding="UTF-8" standalone="no"?>
<!DOCTYPE svg PUBLIC "-//W3C//DTD SVG 1.1//EN" "http://www.w3.org/Graphics/SVG/1.1/DTD/svg11.dtd">
<svg width="100%" height="100%" viewBox="0 0 59 28" version="1.1" xmlns="http://www.w3.org/2000/svg" xmlns:xlink="http://www.w3.org/1999/xlink" xml:space="preserve" xmlns:serif="http://www.serif.com/" style="fill-rule:evenodd;clip-rule:evenodd;stroke-linejoin:round;stroke-miterlimit:2;">
    <g transform="matrix(1,0,0,1,-902.036726,-401.88228)">
        <g transform="matrix(0.953705,0,0,0.953705,108.11143,66.751049)">
            <path d="M846.349,351.399C854.013,351.399 860.234,357.621 860.234,365.284C860.234,372.948 854.013,379.169 846.349,379.169C838.686,379.169 832.465,372.948 832.465,365.284C832.465,357.621 838.686,351.399 846.349,351.399ZM846.349,352.448C839.265,352.448 833.513,358.2 833.513,365.284C833.513,372.369 839.265,378.121 846.349,378.121C853.434,378.121 859.186,372.369 859.186,365.284C859.186,358.2 853.434,352.448 846.349,352.448Z" style="fill:rgb(31,87,195);"/>
        </g>
        <g transform="matrix(1,0,0,1,934.733064,401.723183)">
            <path d="M12,1.155C13.236,0.441 14.764,0.441 16,1.155L24.124,5.845C25.36,6.559 26.124,7.882 26.124,9.309L26.124,18.691C26.124,20.118 25.36,21.441 24.124,22.155L16,26.845C14.764,27.559 13.236,27.559 12,26.845L3.876,22.155C2.64,21.441 1.876,20.118 1.876,18.691L1.876,9.309C1.876,7.882 2.64,6.559 3.876,5.845L12,1.155ZM15.464,7.281L15.463,7.277C15.351,6.981 15.154,6.724 14.897,6.539L14.895,6.538C14.361,6.156 13.639,6.156 13.105,6.538L13.103,6.539C12.846,6.724 12.649,6.981 12.537,7.277L12.536,7.281L11.519,10.022L8.724,10.178C8.403,10.196 8.096,10.315 7.846,10.517L7.844,10.519C7.599,10.718 7.419,10.986 7.326,11.288C7.232,11.587 7.226,11.906 7.308,12.209C7.389,12.513 7.559,12.787 7.795,12.996L7.805,13.005L10,14.882L9.268,17.743L9.263,17.764C9.194,18.07 9.214,18.39 9.319,18.685C9.425,18.984 9.617,19.245 9.871,19.434L9.874,19.437C10.4,19.826 11.12,19.838 11.658,19.466L13.999,17.889L16.348,19.48C16.887,19.851 17.614,19.835 18.14,19.437L18.143,19.435C18.395,19.243 18.585,18.979 18.688,18.679C18.791,18.381 18.807,18.06 18.733,17.754L18.73,17.742L17.993,14.869L20.192,13.009L20.205,12.998C20.442,12.789 20.612,12.514 20.693,12.208C20.775,11.905 20.769,11.585 20.675,11.286C20.579,10.979 20.397,10.712 20.153,10.516C19.903,10.314 19.596,10.196 19.276,10.178L16.481,10.022L15.464,7.281ZM14.059,7.807L15.246,11.004C15.35,11.284 15.609,11.475 15.907,11.492L19.192,11.676C19.198,11.676 19.205,11.679 19.21,11.682L19.213,11.686C19.228,11.698 19.237,11.715 19.243,11.734C19.252,11.761 19.252,11.791 19.245,11.818L19.244,11.821C19.24,11.837 19.232,11.852 19.221,11.865L16.666,14.027C16.446,14.213 16.352,14.508 16.424,14.786L17.275,18.105C17.281,18.133 17.28,18.163 17.27,18.19L17.269,18.192C17.263,18.212 17.251,18.229 17.234,18.242C17.223,18.25 17.207,18.25 17.195,18.242L17.19,18.238L14.421,16.363C14.167,16.191 13.835,16.191 13.581,16.362L10.817,18.224L10.806,18.232C10.795,18.239 10.78,18.24 10.769,18.233C10.752,18.22 10.74,18.203 10.733,18.184L10.732,18.181C10.724,18.158 10.721,18.133 10.724,18.108L11.569,14.801C11.639,14.524 11.547,14.231 11.329,14.045L8.788,11.872C8.773,11.858 8.762,11.84 8.757,11.821L8.756,11.818C8.749,11.791 8.749,11.762 8.758,11.734L8.759,11.731C8.765,11.712 8.776,11.695 8.791,11.682C8.796,11.678 8.802,11.676 8.808,11.676L12.093,11.492C12.391,11.475 12.65,11.284 12.754,11.004L13.941,7.807C13.948,7.787 13.961,7.77 13.978,7.758C13.991,7.749 14.008,7.749 14.021,7.757C14.039,7.77 14.052,7.787 14.059,7.807Z" style="fill:rgb(31,87,195);"/>
        </g>
        <g transform="matrix(0.953705,0,0,0.953705,903.834306,403.678906)">
            <path d="M18.37,19.002L5.63,19.002L5.63,17.135L18.37,17.135L18.37,19.002ZM18.39,15.266L5.608,15.266L3,8.314L7.992,9.978L12,5L16.008,9.978L21,8.314L18.39,15.266Z" style="fill:rgb(31,87,195);"/>
        </g>
    </g>
</svg>
