<?xml version="1.0" encoding="UTF-8" standalone="no"?><!DOCTYPE svg PUBLIC "-//W3C//DTD SVG 1.1//EN" "http://www.w3.org/Graphics/SVG/1.1/DTD/svg11.dtd"><svg width="100%" height="100%" viewBox="0 0 824 1448" version="1.1" xmlns="http://www.w3.org/2000/svg" xmlns:xlink="http://www.w3.org/1999/xlink" xml:space="preserve" xmlns:serif="http://www.serif.com/" style="fill-rule:evenodd;clip-rule:evenodd;stroke-linejoin:round;stroke-miterlimit:2;"><rect id="Artboard1" x="0" y="0" width="823.315" height="1447.9" style="fill:none;"/><g><g><g><g><path d="M529.23,1289.62c0,67.713 -52.681,122.688 -117.576,122.688c-64.888,-0 -117.569,-54.975 -117.569,-122.688c0,67.713 -52.681,122.688 -117.569,122.688c-64.888,-0 -117.576,-54.975 -117.576,-122.688l-0,-885.948c-0,-203.146 158.05,-368.071 352.714,-368.071c194.671,0 352.721,164.925 352.721,368.071l0,885.948c0,67.713 -52.687,122.688 -117.575,122.688c-64.888,-0 -117.57,-54.975 -117.57,-122.688Z" style="fill:#fff;"/></g><g><path d="M55.662,403.667l0,885.948c0,69.601 54.156,126.108 120.854,126.108c57.047,0 104.917,-41.34 117.569,-96.849c12.659,55.509 60.522,96.849 117.569,96.849c57.048,0 104.917,-41.34 117.576,-96.849c12.653,55.509 60.522,96.849 117.57,96.849c66.697,0 120.853,-56.507 120.853,-126.108l0,-885.948c0,-205.034 -159.519,-371.491 -355.999,-371.491c-196.473,-0 -355.992,166.457 -355.992,371.491Zm241.701,885.948l-3.278,3.42l-3.278,-3.42c0,65.825 -51.213,119.267 -114.291,119.267c-63.079,0 -114.298,-53.442 -114.298,-119.267l-0,-885.948c-0,-201.258 156.582,-364.65 349.436,-364.65c192.862,-0 349.444,163.392 349.444,364.65l-0,885.948c-0,65.825 -51.22,119.267 -114.298,119.267c-63.079,0 -114.292,-53.442 -114.292,-119.267l-6.556,-0c0,65.825 -51.212,119.267 -114.298,119.267c-63.078,0 -114.291,-53.442 -114.291,-119.267Z"/></g><g><ellipse cx="429.9" cy="455.47" rx="75.771" ry="110.969" style="fill:#c5c5c5;"/><g><clipPath id="_clip1"><ellipse cx="429.9" cy="455.47" rx="75.771" ry="110.969"/></clipPath><g clip-path="url(#_clip1)"><g><ellipse cx="407.95" cy="463.623" rx="75.771" ry="110.969" style="fill:#1bce0d;"/></g></g></g></g><g><path d="M657.668,314.223c34.891,-0 64.144,47.513 65.282,106.037c1.139,58.523 -26.264,106.036 -61.156,106.036c-34.892,0 -64.144,-47.513 -65.283,-106.036c-1.138,-58.524 26.265,-106.037 61.157,-106.037Z" style="fill:#c5c5c5;"/><g><clipPath id="_clip2"><path d="M657.668,314.223c34.891,-0 64.144,47.513 65.282,106.037c1.139,58.523 -26.264,106.036 -61.156,106.036c-34.892,0 -64.144,-47.513 -65.283,-106.036c-1.138,-58.524 26.265,-106.037 61.157,-106.037Z"/></clipPath><g clip-path="url(#_clip2)"><g><path d="M639.859,324.944c34.892,0 64.144,47.514 65.283,106.037c1.139,58.523 -26.265,106.037 -61.156,106.037c-34.892,-0 -64.144,-47.514 -65.283,-106.037c-1.139,-58.523 26.264,-106.037 61.156,-106.037Z" style="fill:#cc0dce;"/></g></g></g></g><g><path d="M583.297,455.648c5.291,-19.114 20.316,-42.107 68.691,-49.276c63.216,-9.366 91.635,3.598 91.589,56.733c-0.033,40.41 3.455,82.319 -49.849,104.757c-32.025,13.484 -90.18,0.137 -102.538,-28c-8.345,-19.011 -12.868,-49.755 -11.374,-61.686c0.099,-0.787 0.191,-1.649 0.282,-2.566c-12.567,-7.162 -24.623,-6.704 -39.412,6.883c0.636,16.384 -2.695,42.579 -11.82,64.237c-15.268,36.231 -109.985,67.85 -151.167,59.367c-41.176,-8.483 -44.428,-63.889 -45.51,-115.908c-1.081,-52.013 66.101,-70.675 132.746,-68.411c50.262,1.703 66.12,20.195 71.955,38.112c13.786,-5.548 31.192,-6.027 46.407,-4.242Z" style="fill:#00eaff;"/></g></g></g></g></svg>