<?xml version="1.0" encoding="UTF-8" standalone="no"?>
<!DOCTYPE svg PUBLIC "-//W3C//DTD SVG 1.1//EN" "http://www.w3.org/Graphics/SVG/1.1/DTD/svg11.dtd">
<svg width="100%" height="100%" viewBox="0 0 546 333" version="1.1" xmlns="http://www.w3.org/2000/svg" xmlns:xlink="http://www.w3.org/1999/xlink" xml:space="preserve" xmlns:serif="http://www.serif.com/" style="fill-rule:evenodd;clip-rule:evenodd;stroke-linejoin:round;stroke-miterlimit:2;">
    <g transform="matrix(1,0,0,1,-1230,-50.9031)">
        <g transform="matrix(1.57336,0,0,1.64186,794.727,26.7024)">
            <g transform="matrix(1,0,0,1,245.963,-163.756)">
                <g transform="matrix(1,0,0,1,-19.3104,6.15765)">
                    <path d="M233.613,356.145C233.613,366.043 225.577,374.079 215.678,374.079C205.78,374.079 197.744,366.043 197.744,356.145C197.744,366.043 189.708,374.079 179.81,374.079C169.912,374.079 161.875,366.043 161.875,356.145L161.875,226.641C161.875,196.946 185.984,172.838 215.678,172.838C245.373,172.838 269.482,196.946 269.482,226.641L269.482,356.145C269.482,366.043 261.445,374.079 251.547,374.079C241.649,374.079 233.613,366.043 233.613,356.145Z" style="fill:white;"/>
                </g>
                <g transform="matrix(1,0,0,1,-19.3104,6.15765)">
                    <path d="M161.375,226.641L161.375,356.145C161.375,366.319 169.636,374.579 179.81,374.579C188.512,374.579 195.814,368.536 197.744,360.422C199.675,368.536 206.976,374.579 215.678,374.579C224.38,374.579 231.682,368.536 233.613,360.422C235.543,368.536 242.845,374.579 251.547,374.579C261.721,374.579 269.982,366.319 269.982,356.145L269.982,226.641C269.982,196.67 245.649,172.338 215.678,172.338C185.708,172.338 161.375,196.67 161.375,226.641ZM198.244,356.145L197.744,356.645L197.244,356.145C197.244,365.767 189.432,373.579 179.81,373.579C170.188,373.579 162.375,365.767 162.375,356.145L162.375,226.641C162.375,197.222 186.26,173.338 215.678,173.338C245.097,173.338 268.982,197.222 268.982,226.641C268.982,226.641 268.982,356.145 268.982,356.145C268.982,365.767 261.169,373.579 251.547,373.579C241.925,373.579 234.113,365.767 234.113,356.145L233.113,356.145C233.113,365.767 225.301,373.579 215.678,373.579C206.056,373.579 198.244,365.767 198.244,356.145Z"/>
                </g>
                <g transform="matrix(0.775069,0,0,0.575089,-146.17,232.842)">
                    <rect x="228.188" y="86.968" width="447.593" height="87.178" style="fill:white;"/>
                </g>
                <g transform="matrix(1.13027,0,0,0.985714,-214.858,3.6656)">
                    <ellipse cx="366.292" cy="240.136" rx="10.226" ry="16.456" style="fill:rgb(197,197,197);"/>
                    <clipPath id="_clip1">
                        <ellipse cx="366.292" cy="240.136" rx="10.226" ry="16.456"/>
                    </clipPath>
                    <g clip-path="url(#_clip1)">
                        <g transform="matrix(1,0,0,1,-2.96243,1.20901)">
                            <ellipse cx="366.292" cy="240.136" rx="10.226" ry="16.456" style="fill:rgb(27,206,13);"/>
                        </g>
                    </g>
                </g>
                <g transform="matrix(0.943036,0,0.019125,0.941905,-115.81,9.03874)">
                    <ellipse cx="366.292" cy="240.136" rx="10.226" ry="16.456" style="fill:rgb(197,197,197);"/>
                    <clipPath id="_clip2">
                        <ellipse cx="366.292" cy="240.136" rx="10.226" ry="16.456"/>
                    </clipPath>
                    <g clip-path="url(#_clip2)">
                        <g transform="matrix(1,0,0,1,-2.91435,1.66388)">
                            <ellipse cx="366.292" cy="240.136" rx="10.226" ry="16.456" style="fill:rgb(204,13,206);"/>
                        </g>
                    </g>
                </g>
                <g transform="matrix(1,0,0,1,-165.809,0)">
                    <path d="M388.359,240.397C389.166,237.603 391.458,234.242 398.837,233.194C408.48,231.825 412.815,233.72 412.808,241.487C412.803,247.394 413.335,253.52 405.204,256.8C400.319,258.771 391.448,256.82 389.563,252.707C388.29,249.928 387.6,245.434 387.828,243.69C387.843,243.575 387.857,243.449 387.871,243.315C385.954,242.268 384.115,242.335 381.859,244.321C381.956,246.716 381.448,250.545 380.056,253.711C377.727,259.007 363.279,263.629 356.997,262.389C350.716,261.149 350.22,253.05 350.055,245.446C349.89,237.843 360.138,235.115 370.304,235.446C377.971,235.695 380.39,238.398 381.28,241.017C383.383,240.206 386.038,240.136 388.359,240.397Z" style="fill:rgb(0,234,255);"/>
                </g>
            </g>
            <g transform="matrix(0.707645,0,0,0.707645,140.498,89.6953)">
                <g>
                    <g transform="matrix(5.74944,0,0,5.74944,-1712.04,-1305.79)">
                        <g transform="matrix(12,0,0,12,414.196,243.914)">
                        </g>
                        <text x="332.839px" y="243.914px" style="font-family:'CenturyGothic-Bold', 'Century Gothic', sans-serif;font-weight:700;font-size:12px;fill:rgb(204,13,206);">Marav Studios</text>
                    </g>
                    <g transform="matrix(5.74944,0,0,5.74944,-1709.82,-1310.22)">
                        <g transform="matrix(12,0,0,12,414.196,243.914)">
                        </g>
                        <text x="332.839px" y="243.914px" style="font-family:'CenturyGothic-Bold', 'Century Gothic', sans-serif;font-weight:700;font-size:12px;fill:rgb(0,234,255);">Marav Studios</text>
                    </g>
                    <g transform="matrix(5.74944,0,0,5.74944,-1707.23,-1305.79)">
                        <g transform="matrix(12,0,0,12,414.196,243.914)">
                        </g>
                        <text x="332.839px" y="243.914px" style="font-family:'CenturyGothic-Bold', 'Century Gothic', sans-serif;font-weight:700;font-size:12px;fill:rgb(27,206,13);">Marav Studios</text>
                    </g>
                    <g transform="matrix(5.74944,0,0,5.74944,-1707.73,-1308.18)">
                        <g transform="matrix(12,0,0,12,414.196,243.914)">
                        </g>
                        <text x="332.839px" y="243.914px" style="font-family:'CenturyGothic-Bold', 'Century Gothic', sans-serif;font-weight:700;font-size:12px;fill:white;stroke:black;stroke-width:0.15px;">Marav Studios</text>
                    </g>
                </g>
            </g>
        </g>
    </g>
</svg>
